<control> default_path=Sustain\
<region> hikey=c#3 pitch_keycenter=c3 sample=3_C_p.wav offset=18102
<region> lokey=d3 hikey=e3 pitch_keycenter=d#3 sample=3_Eb_p.wav offset=14254
<region> lokey=f3 hikey=g3 pitch_keycenter=f#3 sample=3_Gb_p.wav offset=13037
<region> lokey=g#3 hikey=a#3 pitch_keycenter=a3 sample=3_A_p.wav offset=9718
<region> lokey=b3 hikey=c#4 pitch_keycenter=c4 sample=4_C_p.wav offset=9221
<region> lokey=d4 hikey=e4 pitch_keycenter=d#4 sample=4_Eb_p.wav offset=9947
<region> lokey=f4 hikey=g4 pitch_keycenter=f#4 sample=4_Gb_p.wav offset=9732
<region> lokey=g#4 hikey=a#4 pitch_keycenter=g#4 sample=4_A_p.wav offset=8759
<region> lokey=b4 hikey=c#5 pitch_keycenter=c5 sample=5_C_p.wav offset=11507
<region> lokey=d5 hikey=e5 pitch_keycenter=d#5 sample=5_Eb_p.wav offset=11757
<region> lokey=f5 hikey=g5 pitch_keycenter=f#5 sample=5_Gb_p.wav offset=11773
<region> lokey=g#5 pitch_keycenter=a5 sample=5_A_p.wav offset=8071
